<svg width="20" height="20" viewBox="0 0 20 20" fill="none" xmlns="http://www.w3.org/2000/svg">
<path fill-rule="evenodd" clip-rule="evenodd" d="M8.75002 4.23335C6.25553 4.23335 4.23335 6.25553 4.23335 8.75002C4.23335 11.2445 6.25553 13.2667 8.75002 13.2667C9.99751 13.2667 11.1254 12.7621 11.9438 11.9438C12.7621 11.1254 13.2667 9.99751 13.2667 8.75002C13.2667 6.25553 11.2445 4.23335 8.75002 4.23335ZM2.43335 8.75002C2.43335 5.26142 5.26142 2.43335 8.75002 2.43335C12.2386 2.43335 15.0667 5.26142 15.0667 8.75002C15.0667 10.1693 14.5978 11.4803 13.8076 12.5348L17.3031 16.0303C17.6546 16.3818 17.6546 16.9516 17.3031 17.3031C16.9516 17.6546 16.3818 17.6546 16.0303 17.3031L12.5348 13.8076C11.4803 14.5978 10.1693 15.0667 8.75002 15.0667C5.26142 15.0667 2.43335 12.2386 2.43335 8.75002Z" fill="#333333"/>
</svg>
