<svg width="24" height="24" viewBox="0 0 24 24" fill="none" xmlns="http://www.w3.org/2000/svg">
<path d="M20.7715 3.21843C20.6703 3.11768 20.5424 3.04793 20.4029 3.01737C20.2634 2.98681 20.1181 2.99672 19.984 3.04593L3.48401 9.04593C3.34172 9.0999 3.2192 9.19589 3.13275 9.32114C3.0463 9.44639 3 9.59498 3 9.74718C3 9.89937 3.0463 10.048 3.13275 10.1732C3.2192 10.2985 3.34172 10.3945 3.48401 10.4484L9.92651 13.0209L14.6815 8.25093L15.739 9.30843L10.9615 14.0859L13.5415 20.5284C13.5971 20.668 13.6933 20.7876 13.8177 20.8719C13.942 20.9561 14.0888 21.0011 14.239 21.0009C14.3906 20.9978 14.5376 20.9489 14.6608 20.8605C14.784 20.7721 14.8775 20.6485 14.929 20.5059L20.929 4.00593C20.9801 3.87323 20.9924 3.72875 20.9646 3.58932C20.9367 3.44989 20.8697 3.32126 20.7715 3.21843Z" fill="white"/>
</svg>
