<?xml version="1.0" ?><!DOCTYPE svg  PUBLIC '-//W3C//DTD SVG 1.1//EN'  'http://www.w3.org/Graphics/SVG/1.1/DTD/svg11.dtd'><svg style="enable-background:new 0 0 2000 2000;" version="1.1" viewBox="0 0 2000 2000" xml:space="preserve" xmlns="http://www.w3.org/2000/svg" xmlns:xlink="http://www.w3.org/1999/xlink"><style type="text/css">
	.st0{display:none;}
	.st1{display:inline;}
	.st2{fill:none;stroke:#231F20;stroke-width:2;stroke-miterlimit:10;}
	.st3{fill:#E96F7B;}
	.st4{fill:#F0867E;}
	.st5{fill:#5F6161;}
	.st6{fill:#F2F3F0;}
	.st7{fill:#7A7FBD;}
	.st8{fill:#85AFDC;}
	.st9{fill:#2D0D1B;}
	.st10{fill:#D5D8CB;}
	.st11{fill:#484C4C;}
	.st12{fill:#937CB8;}
	.st13{fill:#7F60A9;}
	.st14{fill:#999999;}
	.st15{fill:#FFFFFF;}
	.st16{fill:#004AF1;}
	.st17{fill:#3EE2D7;}
</style><g><g class="st0" id="Layer_3"><g class="st1"><rect class="st2" height="1000" width="1000" x="500" y="501.3"/><rect class="st2" height="706.7" width="706.7" x="646.6" y="648"/><circle class="st2" cx="1000" cy="1001.3" r="500"/><circle class="st2" cx="1000" cy="1001.3" r="348.7"/><line class="st2" x1="500" x2="1500" y1="501.3" y2="1501.3"/><line class="st2" x1="1500" x2="500" y1="501.3" y2="1501.3"/><line class="st2" x1="1000" x2="1000" y1="498.7" y2="1501.3"/><line class="st2" x1="1501.3" x2="498.7" y1="1000" y2="1000"/></g></g><g class="st0" id="bg"/><g id="object"><g><path class="st5" d="M818.7,607.4l-84.9,85c-4.2-9.4-10.2-18.1-17.8-25.8c-7.9-7.5-16.8-13.3-26.3-17.4l48.1-48.1      C763.9,603.5,790.9,605.6,818.7,607.4z"/><path class="st3" d="M739,748.6c-3.6,15.1-11.3,29.4-23.1,41.2L596.5,909.2c-16.3,16.4-38.5,25.6-61.6,25.5      c-41.1,0-75.5-28.4-84.7-66.6c-1.6-6.6-2.4-13.5-2.4-20.5c0-23.1,9.2-45.3,25.5-61.6l119.4-119.4c26.6-25.4,65-31.2,97-17.4      c9.5,4.1,18.4,9.9,26.3,17.4c7.7,7.7,13.6,16.4,17.8,25.8C741.7,710.1,743.5,729.9,739,748.6z"/><path class="st4" d="M739,748.6c-3.6,15.1-11.3,29.4-23.1,41.2L596.5,909.2c-16.3,16.4-38.5,25.6-61.6,25.5      c-41.1,0-75.5-28.4-84.7-66.6c3.7-15.5,11.6-29.8,23.1-41.2l119.4-119.4c26.6-25.4,65-31.2,97-17.4c9.5,4.1,18.4,9.9,26.3,17.4      c7.7,7.7,13.6,16.4,17.8,25.8C736,738.2,737.7,743.4,739,748.6z"/><path class="st5" d="M1113.9,1650.8c268.9,13.9,472.9,76.9,472.9,151.9c0,85.5-262.4,155-585.9,155s-585.9-69.5-585.9-155      c0-75.3,204.1-138,473.3-151.9l-28.1,35.2l-59.6,74.4c87.7,84.6,313,84.6,400.7,0l-60.8-76.3L1113.9,1650.8z"/><path class="st3" d="M960.6,1465.1c-16.2-0.3-31.9-0.7-47.3-1.3V611.7c28.7,0.9,58.1,1.2,87.7,1.2c29.9,0,59.3-0.3,88-1.2v852.1      c-28.1,1.1-57.4,1.7-88,1.7C987.3,1465.5,973.8,1465.4,960.6,1465.1z"/><path class="st3" d="M1201.3,1760.4c-72.5,70-239.4,82.1-344.4,36.2c-21.9-9.6-41.1-21.6-56.2-36.2l59.6-74.4l28.1-35.2l25-31.2      v-94.1c15.8,0.6,31.6,1.1,47.3,1.4c13.5,0.2,26.9,0.4,40.3,0.4c29.2,0,58.7-0.6,88-1.7v94.1l24.7,31.2h0.3l26.5,33.3      L1201.3,1760.4z"/><path class="st4" d="M1001,1465.5c-13.7,0-27.1-0.1-40.3-0.4V746.9c0-47.9,38.9-86.6,86.8-86.6h0.9c13.7,0,27.2-0.1,40.6-0.2      v803.7C1060.9,1464.9,1031.5,1465.5,1001,1465.5z"/><path class="st4" d="M1201.3,1760.4c-72.5,70-239.4,82.1-344.4,36.2l50.7-63.3l28.1-35.2l25-31.2v-140.1      c13.5,0.2,26.9,0.4,40.3,0.4c29.2,0,58.7-0.6,88-1.7v94.1l24.7,31.2h0.3l26.5,33.3L1201.3,1760.4z"/><path class="st8" d="M1625.2,181.7l-2.2,0.9c0,76.6-264.6,138.9-622.1,138.9s-624.5-62.4-624.5-138.9      c10-29.2,30.9-53.5,58.3-67.6C545.3,72.4,757.4,43.7,1001,43.7s455.7,28.7,566.2,71.3C1594.4,128.9,1615.2,152.8,1625.2,181.7z"/><path class="st7" d="M1648.3,293.7v62.7c0,64.8-29.3,165.8-87,187.4c-98.2,36.1-270.4,62-472.3,67.9c-28.7,0.9-58.1,1.2-88,1.2      c-29.6,0-59-0.3-87.7-1.2c-32.4-0.9-63.9-2.4-94.6-4.3c-27.8-1.7-54.8-3.9-80.9-6.4c-124.9-12-228.9-32.1-297.1-57.2      c-57.7-21.6-87-122.6-87-187.4v-62.7c0.6-38.1,8.3-75.8,22.8-111.1c0,76.5,267,138.9,624.5,138.9S1623,259.2,1623,182.6l2.2-0.9      C1639.9,217.2,1647.8,255.3,1648.3,293.7z"/><path class="st5" d="M1594.8,1350.8c0,108.9-248.1,164.5-505.8,174.7c-29.3,1.2-58.8,1.7-88,1.7c-13.4,0-26.9-0.1-40.3-0.4      c-15.8-0.3-31.6-0.7-47.3-1.4c-257.8-10.2-506.1-65.8-506.1-174.8c0-145.1,452.9-171.4,504.5-173.9c0.6,0,1.1,0.2,1.7,0.2v61.5      c-291.7,14.4-444.4,80.6-444.4,112.1c0,35.5,156,101.6,444.4,113c15.4,0.6,31.2,1.1,47.3,1.3c13.2,0.2,26.6,0.4,40.3,0.4      c30.6,0,59.9-0.6,88-1.7c288.2-11.5,444.1-77.5,444.1-113c0-31.5-152.5-97.7-444.1-112.1V1177c0.5,0,0.9-0.2,1.3-0.2      C1141.9,1179.4,1594.8,1205.7,1594.8,1350.8z"/><g><path class="st9" d="M817.7,606.7l-84.9,85c-4.2-9.4-10.2-18.1-17.8-25.8c-7.9-7.5-16.8-13.3-26.3-17.4l48.1-48.1       C762.9,602.8,789.9,604.9,817.7,606.7z"/></g><g><path class="st9" d="M534.1,949.4c-47.7,0.1-88.7-32.2-99.9-78.4c-1.9-7.9-2.9-16-2.9-24.1c0-27.4,10.7-53.1,30-72.5L580.8,655       c0.1-0.1,0.2-0.2,0.3-0.2c30.4-29.1,75.1-37.1,113.7-20.4c11.4,4.9,21.7,11.8,30.8,20.4c0.1,0.1,0.2,0.2,0.3,0.3       c8.9,8.9,15.9,19.1,21,30.4c9.3,20.6,11.5,44.1,6.2,66.1c-4.4,18.3-13.8,35.1-27.2,48.5L606.4,919.4       C587.4,938.4,561.1,949.4,534.1,949.4z M602.4,676.8L483.1,796.1c-13.5,13.6-21,31.6-21,50.8c0,5.7,0.7,11.4,2,16.9       c7.8,32.3,36.5,54.9,69.8,54.9c0.1,0,0.1,0,0.2,0c18.9,0,37.3-7.6,50.6-21l119.5-119.4c9.4-9.4,16-21.1,19-33.9c0,0,0,0,0,0       c3.7-15.4,2.2-31.9-4.3-46.4c-3.5-7.8-8.4-14.9-14.6-21.1c-6.4-6.1-13.6-10.9-21.6-14.3C655.4,650.8,623.9,656.4,602.4,676.8z"/></g><g><path class="st9" d="M1000,1972.4c-157.7,0-306.3-16.3-418.2-45.9c-83.5-22.1-183.1-61.6-183.1-124.4       c0-98.1,245-154.7,487.8-167.2c6-0.3,11.7,2.9,14.4,8.3c2.8,5.4,2.1,11.9-1.7,16.6l-28.1,35.2l-50.4,62.9       c84.6,66.5,273.8,66.5,358.4,0l-78.2-98.1c-3.8-4.7-4.4-11.2-1.6-16.6c2.8-5.4,8.4-8.6,14.4-8.3       c132.4,6.8,253.6,25.9,341.2,53.7c95.7,30.4,146.3,69.6,146.3,113.5c0,62.8-99.6,102.3-183.1,124.4       C1306.3,1956,1157.7,1972.4,1000,1972.4z M853.8,1667.5c-116.6,8-221.9,25.6-299.4,50.1c-78.2,24.8-125,56.3-125,84.3       c0,19,21.1,36.2,38.8,47.3c27.8,17.4,69.8,33.8,121.4,47.4c109.5,29,255.2,44.9,410.4,44.9c155.2,0,300.9-15.9,410.4-44.9       c51.6-13.6,93.6-30.1,121.4-47.4c17.7-11.1,38.8-28.3,38.8-47.3c0-27.9-46.7-59.4-124.9-84.2c-77.6-24.6-182.8-42.3-299.2-50.3       l65.9,82.6c4.9,6.2,4.4,15.1-1.3,20.6c-44,42.4-122.9,67.7-211,67.7s-167-25.3-211-67.7c-5.7-5.5-6.3-14.5-1.3-20.6       L853.8,1667.5z"/></g><g><path class="st9" d="M1000,1480.2c-29.9,0-59.6-0.6-88.3-1.7c-8.2-0.3-14.7-7.1-14.7-15.3V611c0-4.2,1.7-8.1,4.7-11       c3-2.9,7-4.4,11.2-4.3c25.6,0.8,54.1,1.2,87.2,1.2c33.7,0,61.5-0.4,87.5-1.2c4.1-0.1,8.2,1.4,11.2,4.3c3,2.9,4.7,6.9,4.7,11       v852.1c0,8.2-6.5,15-14.7,15.3C1059.8,1479.6,1030,1480.2,1000,1480.2z M927.7,1448.3c47.5,1.5,97.5,1.5,145,0V626.8       c-21.8,0.5-45.3,0.8-72.6,0.8c-26.8,0-50.6-0.3-72.3-0.8V1448.3z"/></g><g><path class="st9" d="M999.9,1838.5c-54.4,0-107.5-9.9-150.1-28.5c-24.3-10.6-44.8-23.8-60.8-39.3c-5.7-5.5-6.3-14.5-1.3-20.6       l59.6-74.4l49.7-62.2v-88.7c0-4.2,1.7-8.2,4.7-11.1c3-2.9,7.1-4.4,11.2-4.3c28.9,1.1,58.2,1.7,87.1,1.7       c29.1,0,58.5-0.6,87.4-1.7c4.2-0.2,8.2,1.4,11.2,4.3c3,2.9,4.7,6.9,4.7,11.1v88.8l19.8,25c0.7,0.6,1.3,1.2,1.8,1.9l87.3,109.6       c4.9,6.2,4.4,15.1-1.3,20.6c-36.9,35.6-97,59-169.2,65.8C1027.8,1837.9,1013.8,1838.5,999.9,1838.5z M820.8,1757.8       c11.6,9.1,25.4,17.2,41.2,24.1c98.6,43,247.1,30.6,317.1-24.1l-76.6-96.1c-0.7-0.6-1.3-1.3-1.9-2l-24.7-31.2       c-2.1-2.7-3.3-6.1-3.3-9.5v-78.2c-24.1,0.8-48.4,1.2-72.6,1.2c-24,0-48.2-0.4-72.3-1.2v78.2c0,3.5-1.2,6.9-3.4,9.6l-25,31.2       l-28.1,35.2L820.8,1757.8z"/></g><g><path class="st9" d="M1000,336.2c-172.5,0-332.2-14.6-449.7-41.1c-126.2-28.5-190.2-66.6-190.2-113.1c0-1.7,0.3-3.4,0.8-5       c11.3-33.2,34.7-60.3,65.9-76.3c0.5-0.3,1-0.5,1.5-0.7C544.1,55.4,763.1,27.6,1000,27.6c236.9,0,455.9,27.7,571.7,72.3       c0.5,0.2,1,0.4,1.4,0.6c31,15.7,54.3,42.5,65.6,75.4c1.7,4.8,0.8,9.9-1.9,13.8c-6.8,43-70.1,78.4-188.3,105.3       C1331.6,321.6,1172.4,336.2,1000,336.2z M391,184.2c2.8,22.1,47.6,54.2,166.1,81c115.3,26,272.6,40.4,442.9,40.4       c170.2,0,327-14.3,441.7-40.4c121.7-27.6,165-61.1,165-83.2c0-1,0.1-2,0.3-3c-9.3-21.8-25.8-39.6-47.1-50.6       c-112.7-43.2-327.1-70-559.9-70c-232.8,0-447.2,26.8-559.9,70C417.3,140.3,399.9,160,391,184.2z"/></g><g><path class="st9" d="M1000,627.6c-33.4,0-62.2-0.4-88.2-1.2c-32-0.9-64-2.4-95.1-4.4c-27.8-1.7-55.2-3.9-81.4-6.4       c-124.7-11.9-231.6-32.6-301-58.1c-38.3-14.4-61.4-54.8-74.1-86.2c-14.4-35.7-23-78.9-23-115.6v-62.7c0-0.1,0-0.2,0-0.2       c0.6-40.2,8.7-79.5,24-116.7c2.8-6.8,10-10.6,17.2-9.2s12.4,7.7,12.4,15.1c0,22.1,43.7,55.5,166.2,83.2       c115.3,26,272.6,40.4,442.9,40.4c170.2,0,327-14.3,441.7-40.4c121.7-27.6,165-61.1,165-83.2c0-6.2,3.7-11.7,9.4-14.1l2.2-0.9       c3.8-1.6,8-1.6,11.8-0.1c3.8,1.5,6.8,4.5,8.4,8.3c15.6,37.5,23.7,77.1,24.3,117.7c0,0.1,0,0.1,0,0.2v62.7       c0,36.7-8.6,80-23,115.6c-12.7,31.4-35.8,71.8-74,86.1c-103.2,38-277.1,63.1-477.3,68.9C1062.2,627.2,1034.1,627.6,1000,627.6z        M368,293.2v62.6c0,58.9,27.4,154.4,77.1,173c66.9,24.6,171,44.6,293.2,56.3c25.9,2.5,52.9,4.6,80.4,6.3       c30.7,1.9,62.4,3.4,94.1,4.3c25.6,0.8,54.2,1.2,87.2,1.2c33.7,0,61.5-0.4,87.5-1.2c194.1-5.6,368.9-30.7,467.5-67       c49.5-18.6,77-114.1,77-173v-62.6c-0.4-24.8-3.9-49.3-10.5-73c-26,29.6-83.9,54.7-173,74.9c-116.8,26.5-276.1,41.1-448.5,41.1       c-172.5,0-332.2-14.6-449.7-41.1C462.6,275.3,405,250.9,378,222.2C371.7,245.3,368.4,269,368,293.2z"/></g><g><path class="st9" d="M1593.8,1350.1c0,108.9-248.1,164.5-505.8,174.7c-29.3,1.2-58.8,1.7-88,1.7c-29.1,0-58.5-0.6-87.7-1.7       c-257.8-10.2-506.1-65.8-506.1-174.8c0-145.1,452.9-171.4,504.5-173.9c0.6,0,1.1,0.2,1.7,0.2v61.5       c-291.7,14.4-444.4,80.6-444.4,112.1c0,35.5,156,101.6,444.4,113c28,1.1,57.2,1.7,87.7,1.7c30.6,0,59.9-0.6,88-1.7       c288.2-11.5,444.1-77.5,444.1-113c0-31.5-152.5-97.7-444.1-112.1v-61.6c0.5,0,0.9-0.2,1.3-0.2       C1141,1178.7,1593.8,1205,1593.8,1350.1z"/></g></g></g></g></svg>